<?xml version="1.0" encoding="iso-8859-1"?>
<!-- Generator: Adobe Illustrator 19.1.0, SVG Export Plug-In . SVG Version: 6.00 Build 0)  -->
<svg version="1.1" xmlns="http://www.w3.org/2000/svg" xmlns:xlink="http://www.w3.org/1999/xlink" x="0px" y="0px"
	 viewBox="0 0 595.28 841.89" style="enable-background:new 0 0 595.28 841.89;" xml:space="preserve">
<g id="Livello_1_copia" style="display:none;">
	<line style="display:inline;fill:none;stroke:#000000;stroke-miterlimit:10;" x1="0" y1="0" x2="595.28" y2="841.89"/>
	<line style="display:inline;fill:none;stroke:#000000;stroke-miterlimit:10;" x1="0" y1="841.89" x2="595.28" y2="0"/>
</g>
<g id="Livello_1_copia_2" style="display:none;">
	
		<line style="display:inline;opacity:0.25;fill:none;stroke:#000000;stroke-miterlimit:10;" x1="595.28" y1="0" x2="0" y2="841.89"/>
	
		<line style="display:inline;opacity:0.25;fill:none;stroke:#000000;stroke-miterlimit:10;" x1="595.28" y1="841.89" x2="0" y2="0"/>
	<ellipse style="fill:#010202;" cx="297.64" cy="202.101" rx="132.444" ry="119.994"/>
</g>
<g id="shop" style="display:none;">
	<path style="display:inline;fill:#010202;" d="M461.61,152.987C419.062,45.974,305.12,51.168,297.642,51.627
		c-7.477-0.46-121.42-5.654-163.968,101.36c-44,110.667,163.968,268.5,163.968,268.5S505.61,263.653,461.61,152.987z
		 M297.64,322.095c-73.147,0-132.444-53.723-132.444-119.994S224.493,82.107,297.64,82.107s132.444,53.723,132.444,119.994
		S370.787,322.095,297.64,322.095z"/>
	<g style="display:inline;">
		<path d="M311.641,277.286c-27.236,0-54.472,0-81.708,0c0-25.055,0-50.109,0-75.323c8.652,0.993,15.143-2.246,19.739-9.621
			c3.811,6.503,9.393,9.881,16.509,9.862c7.096-0.019,12.604-3.522,16.388-9.898c3.818,6.525,9.396,9.911,16.508,9.897
			c7.097-0.013,12.616-3.501,16.398-9.886c3.828,6.479,9.384,9.9,16.498,9.887c7.1-0.013,12.627-3.482,16.447-9.943
			c2.075,3.77,4.889,6.315,8.4,8.108c3.524,1.799,7.323,1.911,11.253,1.658c0,25.223,0,50.241,0,75.259c-6.368,0-12.736,0-19.104,0
			c0-20.835,0-41.67,0-62.503c-12.539,0-24.893,0-37.327,0C311.641,235.685,311.641,256.486,311.641,277.286z M249.115,214.746
			c0,12.493,0,24.815,0,37.172c14.493,0,28.907,0,43.318,0c0-12.449,0-24.806,0-37.172
			C277.948,214.746,263.57,214.746,249.115,214.746z"/>
		<path d="M223.76,184.409c0.294-1.625,0.612-3.247,0.878-4.877c0.595-3.647,1.179-7.297,1.741-10.949
			c0.613-3.989,1.196-7.983,1.791-11.975c0.495-3.326,0.984-6.653,1.483-9.978c0.107-0.717,0.461-1.146,1.269-1.021
			c0.239,0.037,0.489,0.005,0.734,0.005c42.855,0,85.71,0.005,128.565-0.027c1.189-0.001,1.766,0.25,2.144,1.476
			c3.412,11.056,6.929,22.08,10.342,33.136c0.674,2.184,1.185,4.445,1.501,6.708c0.446,3.201-2.596,7.191-5.823,8.367
			c-5.35,1.949-11.167-0.712-12.707-6.357c-0.149-0.547-0.23-1.131-0.231-1.697c-0.014-9.061-0.01-18.122-0.01-27.182
			c0-0.532,0-1.064,0-1.691c-4.614,0-9.135,0-13.817,0c0,0.551,0,1.074,0,1.597c0,8.13,0.069,16.261-0.047,24.39
			c-0.03,2.122-0.076,4.307-1.123,6.334c-2.384,4.613-7.825,6.579-12.567,4.318c-3.475-1.657-5.371-4.423-5.367-8.371
			c0.008-8.865,0.003-17.73,0.003-26.595c0-0.53,0-1.06,0-1.679c-4.725,0-9.344,0-14.111,0c0,0.572,0,1.097,0,1.622
			c0,8.963-0.098,17.927,0.053,26.888c0.053,3.166-2.887,7.37-6.138,8.491c-5.233,1.804-11.034-0.968-12.465-6.375
			c-0.145-0.549-0.245-1.128-0.246-1.693c-0.015-9.061-0.011-18.121-0.011-27.182c0-0.536,0-1.073,0-1.725
			c-4.674,0-9.294,0-14.111,0c0,0.49,0,1.008,0,1.526c0,9.11,0.017,18.22-0.007,27.329c-0.012,4.392-4.088,8.397-8.673,8.668
			c-4.936,0.292-8.762-2.786-9.903-6.99c-0.136-0.502-0.214-1.037-0.215-1.556c-0.013-9.11-0.009-18.219-0.009-27.329
			c0-0.529,0-1.059,0-1.675c-4.729,0-9.349,0-14.111,0c0,0.579,0,1.105,0,1.63c0,8.963-0.09,17.927,0.048,26.888
			c0.05,3.236-2.779,7.306-6.001,8.445c-5.201,1.838-10.768-0.646-12.568-6.043c-0.054-0.161-0.189-0.294-0.287-0.439
			C223.76,187.348,223.76,185.878,223.76,184.409z"/>
		<path d="M361.791,139.376c-43.97,0-87.832,0-131.776,0c0-4.155,0-8.25,0-12.459c43.874,0,87.772,0,131.776,0
			C361.791,131.003,361.791,135.132,361.791,139.376z"/>
	</g>
</g>
<g id="appartamento" style="display:none;">
	<path style="display:inline;fill:#010202;" d="M461.61,152.987C419.062,45.974,305.12,51.168,297.642,51.627
		c-7.477-0.46-121.42-5.654-163.968,101.36c-44,110.667,163.968,268.5,163.968,268.5S505.61,263.653,461.61,152.987z
		 M297.64,322.095c-73.147,0-132.444-53.723-132.444-119.994S224.493,82.107,297.64,82.107s132.444,53.723,132.444,119.994
		S370.787,322.095,297.64,322.095z"/>
	<path style="display:inline;" d="M345.42,131.932c0-0.7-0.122-1.4-0.215-2.407c-1.959,0-3.391,0-4.823,0
		c-27.866,0-55.733-0.001-83.599,0c-5.163,0-5.216,0.004-5.217,3.084c-0.019,46.272,0.001,92.545-0.103,138.817
		c-0.005,2.132,1.003,2.691,4.449,2.681c28.523-0.08,57.047-0.07,85.57-0.008c3.02,0.007,4.07-0.428,4.065-2.39
		C345.443,225.117,345.447,178.525,345.42,131.932z M292,257.75h-23.5v-30.5H292V257.75z M292,213.875h-23.5v-30.5H292V213.875z
		 M292,170h-23.5v-30.5H292V170z M326.5,257.75H303v-30.5h23.5V257.75z M326.5,213.875H303v-30.5h23.5V213.875z M326.5,170H303
		v-30.5h23.5V170z"/>
</g>
<g id="schiera" style="display:none;">
	<path style="display:inline;fill:#010202;" d="M461.61,152.987C419.062,45.974,305.12,51.168,297.642,51.627
		c-7.477-0.46-121.42-5.654-163.968,101.36c-44,110.667,163.968,268.5,163.968,268.5S505.61,263.653,461.61,152.987z
		 M297.64,322.095c-73.147,0-132.444-53.723-132.444-119.994S224.493,82.107,297.64,82.107s132.444,53.723,132.444,119.994
		S370.787,322.095,297.64,322.095z"/>
	<g style="display:inline;">
		<g>
			<path d="M395.957,240.539c-0.052-2.015-0.656-2.931-1.806-2.933c-0.443-0.001-0.886,0.024-1.329,0.009
				c-0.731-0.024-1.26-0.768-1.402-2.026c-0.074-0.659-0.114-1.34-0.115-2.011c-0.007-4.297,0.002-8.594,0.005-12.891
				c0.012-16.961,0.024-33.922,0.036-50.883c0-0.29,0.006-0.581,0.013-0.871c0.121-5.261-0.464-7.458-2.879-9.737
				c-0.07-0.066-0.14-0.13-0.21-0.196v0.074h-55.497c-1.617,1.491-2.863,3.494-2.986,6.929c-0.054,1.504-0.018,3.019-0.015,4.529
				c0.009,4.005,0.032,8.01,0.033,12.014c0.004,13.925,0.001,27.851,0.002,41.776c0,3.037,0.031,6.075-0.003,9.11
				c-0.019,1.638-0.158,3.352-1.204,3.968c-0.569,0.335-1.228,0.326-1.84,0.272c-0.777-0.068-1.127,0.264-1.304,1.577
				c-0.358,2.643-0.394,5.282,0.023,7.918c0.198,1.255,0.607,1.855,1.351,1.845c0.625-0.008,1.25-0.158,1.874-0.158
				c4.394,0.005,8.789,0.044,13.183,0.051c6.407,0.01,12.814,0.003,19.222,0.003c0-0.021,0-0.041,0-0.062
				c10.674,0,21.348,0,32.022-0.001c0.295,0,0.594,0.039,0.886-0.026c1.273-0.282,1.842-1.005,1.922-2.963
				C396.01,244.093,396.003,242.309,395.957,240.539z M353.421,206.774c0,3.521,0.002,7.042-0.001,10.563
				c-0.001,1.84-0.461,2.639-1.52,2.64c-3.176,0.003-6.352,0.001-9.527,0.001c-0.438,0-0.878,0.04-1.314-0.009
				c-0.67-0.076-1.048-0.654-1.167-1.805c-0.065-0.626-0.077-1.274-0.078-1.912c-0.006-6.332-0.004-12.663-0.004-18.995
				c0-0.385-0.023-0.776,0.007-1.154c0.135-1.744,0.598-2.501,1.609-2.516c1.254-0.018,2.509,0.065,3.764,0.061
				c1.975-0.006,3.949-0.071,5.924-0.056c0.506,0.004,1.03,0.111,1.514,0.36c0.572,0.294,0.799,1.117,0.797,2.162
				C353.416,199.667,353.421,203.22,353.421,206.774z M380.904,233.916c0,2.716-0.703,3.72-2.277,3.668
				c-2.912-0.096-5.826-0.033-8.739-0.049c-0.496-0.003-0.995-0.023-1.488-0.118c-0.753-0.145-1.207-1.038-1.256-2.379
				c-0.011-0.29-0.003-0.581-0.003-0.872c0-11.922,0-23.844,0-35.766c0-0.743-0.025-1.489,0.005-2.228
				c0.069-1.704,0.57-2.558,1.559-2.578c1.199-0.024,2.399,0.059,3.598,0.054c2.234-0.009,4.467-0.058,6.701-0.071
				c1.394-0.008,1.899,0.887,1.9,3.315c0.001,6.203,0,12.406,0,18.609C380.904,221.639,380.905,227.778,380.904,233.916z"/>
		</g>
		<g>
			<path d="M333.013,240.539c-0.052-2.015-0.656-2.931-1.806-2.933c-0.443-0.001-0.886,0.024-1.329,0.009
				c-0.731-0.024-1.26-0.768-1.402-2.026c-0.074-0.659-0.114-1.34-0.115-2.011c-0.007-4.297,0.002-8.594,0.005-12.891
				c0.012-16.961,0.024-33.922,0.036-50.883c0-0.29,0.006-0.581,0.013-0.871c0.121-5.261-0.464-7.458-2.879-9.737
				c-0.07-0.066-0.14-0.13-0.21-0.196v0.074h-55.497c-1.617,1.491-2.863,3.494-2.986,6.929c-0.054,1.504-0.018,3.019-0.015,4.529
				c0.009,4.005,0.032,8.01,0.033,12.014c0.004,13.925,0.001,27.851,0.002,41.776c0,3.037,0.031,6.075-0.003,9.11
				c-0.019,1.638-0.158,3.352-1.204,3.968c-0.569,0.335-1.228,0.326-1.84,0.272c-0.777-0.068-1.127,0.264-1.304,1.577
				c-0.358,2.643-0.394,5.282,0.023,7.918c0.198,1.255,0.607,1.855,1.351,1.845c0.625-0.008,1.25-0.158,1.874-0.158
				c4.394,0.005,8.789,0.044,13.183,0.051c6.407,0.01,12.814,0.003,19.222,0.003c0-0.021,0-0.041,0-0.062
				c10.674,0,21.348,0,32.022-0.001c0.295,0,0.594,0.039,0.886-0.026c1.273-0.282,1.842-1.005,1.922-2.963
				C333.066,244.093,333.059,242.309,333.013,240.539z M290.477,206.774c0,3.521,0.002,7.042-0.001,10.563
				c-0.001,1.84-0.461,2.639-1.52,2.64c-3.176,0.003-6.352,0.001-9.527,0.001c-0.438,0-0.878,0.04-1.314-0.009
				c-0.67-0.076-1.048-0.654-1.167-1.805c-0.065-0.626-0.077-1.274-0.078-1.912c-0.006-6.332-0.004-12.663-0.004-18.995
				c0-0.385-0.023-0.776,0.007-1.154c0.135-1.744,0.598-2.501,1.609-2.516c1.254-0.018,2.509,0.065,3.764,0.061
				c1.975-0.006,3.949-0.071,5.924-0.056c0.506,0.004,1.03,0.111,1.514,0.36c0.572,0.294,0.799,1.117,0.797,2.162
				C290.472,199.667,290.477,203.22,290.477,206.774z M317.96,233.916c0,2.716-0.703,3.72-2.277,3.668
				c-2.912-0.096-5.826-0.033-8.739-0.049c-0.496-0.003-0.995-0.023-1.488-0.118c-0.753-0.145-1.207-1.038-1.256-2.379
				c-0.011-0.29-0.003-0.581-0.003-0.872c0-11.922,0-23.844,0-35.766c0-0.743-0.025-1.489,0.005-2.228
				c0.069-1.704,0.57-2.558,1.559-2.578c1.199-0.024,2.399,0.059,3.598,0.054c2.234-0.009,4.467-0.058,6.701-0.071
				c1.394-0.008,1.899,0.887,1.9,3.315c0.001,6.203,0,12.406,0,18.609C317.96,221.639,317.961,227.778,317.96,233.916z"/>
		</g>
		<g>
			<path d="M270.069,240.539c-0.052-2.015-0.656-2.931-1.806-2.933c-0.443-0.001-0.886,0.024-1.329,0.009
				c-0.731-0.024-1.26-0.768-1.402-2.026c-0.074-0.659-0.114-1.34-0.115-2.011c-0.007-4.297,0.002-8.594,0.005-12.891
				c0.012-16.961,0.024-33.922,0.036-50.883c0-0.29,0.006-0.581,0.013-0.871c0.121-5.261-0.464-7.458-2.879-9.737
				c-0.07-0.066-0.14-0.13-0.21-0.196v0.074h-55.497c-1.617,1.491-2.863,3.494-2.986,6.929c-0.054,1.504-0.018,3.019-0.015,4.529
				c0.009,4.005,0.032,8.01,0.033,12.014c0.004,13.925,0.001,27.851,0.002,41.776c0,3.037,0.031,6.075-0.003,9.11
				c-0.019,1.638-0.158,3.352-1.204,3.968c-0.569,0.335-1.228,0.326-1.84,0.272c-0.777-0.068-1.127,0.264-1.304,1.577
				c-0.358,2.643-0.394,5.282,0.023,7.918c0.198,1.255,0.607,1.855,1.351,1.845c0.625-0.008,1.25-0.158,1.874-0.158
				c4.394,0.005,8.789,0.044,13.183,0.051c6.407,0.01,12.814,0.003,19.222,0.003c0-0.021,0-0.041,0-0.062
				c10.674,0,21.348,0,32.022-0.001c0.295,0,0.594,0.039,0.886-0.026c1.273-0.282,1.842-1.005,1.922-2.963
				C270.122,244.093,270.115,242.309,270.069,240.539z M227.533,206.774c0,3.521,0.002,7.042-0.001,10.563
				c-0.001,1.84-0.461,2.639-1.52,2.64c-3.176,0.003-6.352,0.001-9.527,0.001c-0.438,0-0.877,0.04-1.314-0.009
				c-0.67-0.076-1.048-0.654-1.167-1.805c-0.065-0.626-0.077-1.274-0.078-1.912c-0.006-6.332-0.004-12.663-0.004-18.995
				c0-0.385-0.023-0.776,0.007-1.154c0.135-1.744,0.598-2.501,1.609-2.516c1.254-0.018,2.509,0.065,3.764,0.061
				c1.975-0.006,3.949-0.071,5.924-0.056c0.506,0.004,1.03,0.111,1.514,0.36c0.572,0.294,0.799,1.117,0.797,2.162
				C227.528,199.667,227.533,203.22,227.533,206.774z M255.016,233.916c0,2.716-0.703,3.72-2.277,3.668
				c-2.912-0.096-5.826-0.033-8.739-0.049c-0.496-0.003-0.995-0.023-1.488-0.118c-0.753-0.145-1.207-1.038-1.256-2.379
				c-0.011-0.29-0.003-0.581-0.003-0.872c0-11.922,0-23.844,0-35.766c0-0.743-0.025-1.489,0.005-2.228
				c0.069-1.704,0.57-2.558,1.559-2.578c1.199-0.024,2.399,0.059,3.598,0.054c2.234-0.009,4.467-0.058,6.701-0.071
				c1.394-0.008,1.899,0.887,1.9,3.315c0.001,6.203,0,12.406,0,18.609C255.016,221.639,255.017,227.778,255.016,233.916z"/>
		</g>
	</g>
</g>
<g id="villetta">
	<path style="fill:#010202;" d="M461.61,152.987C419.062,45.974,305.12,51.168,297.642,51.627
		c-7.477-0.46-121.42-5.654-163.968,101.36c-44,110.667,163.968,268.5,163.968,268.5S505.61,263.653,461.61,152.987z
		 M297.64,322.095c-73.147,0-132.444-53.723-132.444-119.994S224.493,82.107,297.64,82.107s132.444,53.723,132.444,119.994
		S370.787,322.095,297.64,322.095z"/>
	<g>
		<path d="M392.926,155.568c3.238,1.4,6.37,3.027,9.508,4.628c1.847,0.943,3.616,2.024,5.413,3.055
			c1.885,1.082,2.211,2.282,1.106,4.108c-1.108,1.83-2.211,3.663-3.372,5.462c-0.384,0.594-0.938,1.09-1.423,1.623
			c-0.754,0.83-1.663,0.931-2.633,0.417c-2.554-1.353-5.086-2.745-7.641-4.096c-4.092-2.163-8.195-4.306-12.294-6.458
			c-3.705-1.945-7.412-3.885-11.113-5.836c-4.067-2.145-8.128-4.301-12.192-6.45c-3.634-1.922-7.272-3.839-10.904-5.766
			c-5.531-2.934-11.048-5.891-16.591-8.804c-2.334-1.227-4.704-1.447-7.14-0.126c-3.808,2.063-7.662,4.05-11.486,6.085
			c-5.923,3.152-11.833,6.326-17.757,9.475c-3.661,1.946-7.343,3.858-11.01,5.794c-4.098,2.164-8.181,4.353-12.285,6.504
			c-4.723,2.475-9.47,4.907-14.187,7.393c-0.949,0.501-1.797,1.174-2.706,1.746c-1.906,1.199-2.968,1.13-4.598-0.372
			c-2.424-2.235-4.086-4.903-4.888-8.041c-0.042-0.164-0.153-0.312-0.232-0.468c0-0.288,0-0.576,0-0.864
			c0.859-1.176,2.233-1.574,3.486-2.209c4.001-2.028,7.933-4.178,11.894-6.276c3.761-1.992,7.525-3.979,11.288-5.967
			c5.899-3.117,11.803-6.228,17.697-9.354c3.468-1.84,6.911-3.723,10.384-5.555c6.189-3.264,12.398-6.497,18.588-9.758
			c1.971-1.038,3.897-2.154,5.87-3.187c2.294-1.201,4.636-1.051,6.912,0.023c1.501,0.709,2.927,1.563,4.391,2.344
			c4.315,2.301,8.635,4.593,12.947,6.898c2.746,1.468,5.45,3.013,8.243,4.397"/>
		<path d="M328.213,273.898c-13.101,0-26.201,0.008-39.302-0.003c-8.985-0.008-17.97-0.051-26.954-0.057
			c-1.277-0.001-2.554,0.167-3.832,0.176c-1.521,0.011-2.356-0.658-2.761-2.055c-0.853-2.936-0.779-5.875-0.047-8.818
			c0.363-1.463,1.079-1.832,2.667-1.756c1.253,0.06,2.6,0.07,3.763-0.303c2.139-0.686,2.424-2.595,2.462-4.419
			c0.07-3.381,0.007-6.764,0.007-10.146c-0.002-15.508,0.005-31.015-0.004-46.523c-0.003-4.46-0.049-8.92-0.068-13.38
			c-0.007-1.682-0.079-3.368,0.03-5.044c0.25-3.825,2.799-6.056,6.105-7.716c0.961-0.483,1.931-0.949,2.884-1.447
			c4.733-2.472,9.465-4.945,14.189-7.431c3.871-2.037,7.734-4.09,11.596-6.143c3.826-2.033,7.648-4.073,11.47-6.113
			c3.918-2.092,7.871-4.129,11.74-6.3c3.375-1.894,6.493-1.911,9.93,0.084c5.342,3.101,10.892,5.876,16.355,8.788
			c4.773,2.544,9.54,5.097,14.321,7.625c3.897,2.061,7.804,4.107,11.721,6.133c3.221,1.666,6.47,3.282,9.695,4.94
			c4.938,2.538,6.134,4.985,5.886,10.843c-0.014,0.323-0.025,0.647-0.026,0.97c-0.025,18.888-0.049,37.776-0.074,56.664
			c-0.006,4.785-0.023,9.571-0.01,14.356c0.002,0.747,0.084,1.506,0.236,2.239c0.289,1.401,1.371,2.229,2.866,2.256
			c0.906,0.016,1.812-0.011,2.718-0.01c2.35,0.002,3.585,1.023,3.692,3.267c0.094,1.971,0.109,3.958-0.04,5.924
			c-0.165,2.18-1.327,2.985-3.93,3.3c-0.595,0.072-1.207,0.029-1.811,0.029c-21.825,0.001-43.649,0.001-65.474,0.001
			C328.213,273.852,328.213,273.875,328.213,273.898z M368.689,236.693c0-6.908,0.001-13.816-0.001-20.723
			c-0.001-2.703-1.034-3.7-3.884-3.691c-4.567,0.014-9.134,0.069-13.7,0.079c-2.452,0.005-4.905-0.087-7.357-0.06
			c-2.022,0.022-3.045,0.974-3.187,2.871c-0.062,0.823-0.01,1.654-0.01,2.481c0,13.276,0,26.553,0,39.829
			c0,0.324-0.017,0.649,0.005,0.971c0.101,1.493,1.03,2.488,2.569,2.649c1.007,0.105,2.027,0.128,3.042,0.131
			c5.956,0.018,11.914-0.053,17.868,0.055c3.217,0.058,4.654-1.061,4.655-4.085C368.691,250.365,368.689,243.529,368.689,236.693z
			 M312.496,226.975c0-3.957-0.01-7.914,0.006-11.872c0.005-1.164-0.459-2.08-1.629-2.408c-0.99-0.277-2.06-0.396-3.095-0.401
			c-4.037-0.017-8.075,0.056-12.113,0.062c-2.565,0.004-5.131-0.089-7.696-0.068c-2.067,0.016-3.013,0.86-3.289,2.802
			c-0.06,0.421-0.014,0.856-0.014,1.285c0,7.051-0.003,14.102,0.009,21.153c0.001,0.711,0.027,1.433,0.159,2.13
			c0.243,1.282,1.015,1.925,2.386,2.011c0.892,0.055,1.79,0.011,2.686,0.011c6.493,0,12.987,0.002,19.48-0.001
			c2.165-0.001,3.106-0.891,3.108-2.94C312.5,234.817,312.497,230.896,312.496,226.975z"/>
	</g>
	<g>
		<path d="M221.569,275.265c-2.362,0-4.378,0-6.657,0c0-8.138,0-16.075,0-23.532c-5.25-1.581-10.218-2.876-15.125-4.658
			c-1.816-0.659-3.604-2.141-5.207-3.804c-4.226-4.383-5.175-11.151-2.556-18.285c0.838-2.282,1.078-4.301,0.881-6.951
			c-0.657-8.852,0.729-16.912,3.914-23.922c1.014-2.233,1.274-4.419,1.377-7.137c0.169-4.446,0.551-8.944,1.237-13.236
			c0.677-4.241,2.341-7.825,4.828-9.134c2.154-1.134,2.409-3.384,2.614-6.53c0.78-12.009,3.686-22.236,8.94-30.489
			c1.217-1.912,2.247-2.089,3.702-0.98c3.28,2.502,5.699,6.502,7.434,11.765c2.268,6.88,3.267,14.384,3.734,22.187
			c0.11,1.832,0.725,3.617,1.217,5.332c1.568,5.462,3.423,10.723,4.723,16.361c1.361,5.899,2.198,12.149,3.283,18.236
			c1.456,8.168,1.432,16.513,1.19,24.928c-0.046,1.611,0.505,3.345,0.933,4.899c0.304,1.103,0.913,1.947,1.304,2.996
			c1.998,5.362,1.481,10.483-1.973,12.628c-3.861,2.397-8.023,3.441-12.088,4.769c-1.633,0.533-3.367,0.505-5.035,0.285
			c-2.065-0.272-2.818,0.841-2.718,4.546C221.695,262.017,221.569,268.517,221.569,275.265z"/>
	</g>
</g>
<g id="indipendente" style="display:none;">
	<path style="display:inline;fill:#010202;" d="M461.61,152.987C419.062,45.974,305.12,51.168,297.642,51.627
		c-7.477-0.46-121.42-5.654-163.968,101.36c-44,110.667,163.968,268.5,163.968,268.5S505.61,263.653,461.61,152.987z
		 M297.64,322.095c-73.147,0-132.444-53.723-132.444-119.994S224.493,82.107,297.64,82.107s132.444,53.723,132.444,119.994
		S370.787,322.095,297.64,322.095z"/>
	<g style="display:inline;">
		<path d="M339.372,118.59c1.498,0.049,2.995,0.104,4.493,0.145c0.575,0.016,1.152,0.024,1.727-0.001
			c2.956-0.13,3.627,1.313,3.862,3.952c0.142,1.598-0.26,3.236-0.246,4.855c0.022,2.556,0.301,5.113,0.245,7.665
			c-0.029,1.333-0.547,2.655-0.836,3.983c-0.796,3.664,0.153,6.887,2.438,9.793c2.493,3.172,5.906,4.96,9.49,6.586
			c3.085,1.4,6.07,3.027,9.06,4.628c1.76,0.943,3.446,2.024,5.158,3.055c1.796,1.082,2.107,2.282,1.054,4.108
			c-1.055,1.83-2.107,3.663-3.213,5.462c-0.366,0.594-0.894,1.09-1.356,1.623c-0.719,0.83-1.585,0.931-2.509,0.417
			c-2.434-1.353-4.846-2.745-7.281-4.096c-3.899-2.163-7.809-4.306-11.715-6.458c-3.53-1.945-7.063-3.885-10.589-5.836
			c-3.876-2.145-7.745-4.301-11.618-6.45c-3.463-1.922-6.929-3.839-10.39-5.766c-5.27-2.934-10.528-5.891-15.809-8.804
			c-2.224-1.227-4.483-1.447-6.804-0.126c-3.629,2.063-7.301,4.05-10.945,6.085c-5.644,3.152-11.275,6.326-16.921,9.475
			c-3.489,1.946-6.997,3.858-10.491,5.794c-3.905,2.164-7.795,4.353-11.707,6.504c-4.5,2.475-9.024,4.907-13.518,7.393
			c-0.905,0.501-1.712,1.174-2.579,1.746c-1.817,1.199-2.829,1.13-4.381-0.372c-2.31-2.235-3.893-4.903-4.658-8.041
			c-0.04-0.164-0.146-0.312-0.221-0.468c0-0.288,0-0.576,0-0.864c0.818-1.176,2.128-1.574,3.322-2.209
			c3.812-2.028,7.559-4.178,11.334-6.276c3.584-1.992,7.17-3.979,10.756-5.967c5.621-3.117,11.247-6.228,16.863-9.354
			c3.305-1.84,6.585-3.723,9.895-5.555c5.898-3.264,11.814-6.497,17.713-9.758c1.878-1.038,3.713-2.154,5.594-3.187
			c2.186-1.201,4.418-1.051,6.587,0.023c1.431,0.709,2.789,1.563,4.184,2.344c4.112,2.301,8.228,4.593,12.337,6.898
			c2.617,1.468,5.194,3.013,7.854,4.397c0.791,0.411,2.008,0.781,2.658,0.447c0.531-0.273,0.692-1.62,0.701-2.494
			c0.035-3.52-0.086-7.041-0.085-10.561c0.001-4.037,0.712-4.171,3.425-4.736C334.622,118.59,336.997,118.59,339.372,118.59z"/>
		<path d="M298.88,273.898c-12.483,0-24.967,0.008-37.45-0.003c-8.562-0.008-17.123-0.051-25.685-0.057
			c-1.217-0.001-2.434,0.167-3.652,0.176c-1.449,0.011-2.245-0.658-2.631-2.055c-0.813-2.936-0.742-5.875-0.045-8.818
			c0.346-1.463,1.028-1.832,2.541-1.756c1.194,0.06,2.478,0.07,3.586-0.303c2.039-0.686,2.31-2.595,2.346-4.419
			c0.067-3.381,0.007-6.764,0.007-10.146c-0.001-15.508,0.004-31.015-0.004-46.523c-0.002-4.46-0.047-8.92-0.064-13.38
			c-0.007-1.682-0.076-3.368,0.029-5.044c0.239-3.825,2.667-6.056,5.817-7.716c0.916-0.483,1.84-0.949,2.748-1.447
			c4.51-2.472,9.019-4.945,13.521-7.431c3.689-2.037,7.37-4.09,11.05-6.143c3.646-2.033,7.288-4.073,10.93-6.113
			c3.734-2.092,7.5-4.129,11.187-6.3c3.216-1.894,6.187-1.911,9.462,0.084c5.09,3.101,10.379,5.876,15.585,8.788
			c4.548,2.544,9.091,5.097,13.647,7.625c3.714,2.061,7.436,4.107,11.169,6.133c3.069,1.666,6.165,3.282,9.238,4.94
			c4.705,2.538,5.845,4.985,5.609,10.843c-0.013,0.323-0.024,0.647-0.025,0.97c-0.024,18.888-0.047,37.776-0.07,56.664
			c-0.006,4.785-0.022,9.571-0.009,14.356c0.002,0.747,0.08,1.506,0.225,2.239c0.276,1.401,1.306,2.229,2.731,2.256
			c0.863,0.016,1.727-0.011,2.59-0.01c2.239,0.002,3.416,1.023,3.518,3.267c0.09,1.971,0.104,3.958-0.038,5.924
			c-0.157,2.18-1.264,2.985-3.745,3.3c-0.567,0.072-1.15,0.029-1.725,0.029c-20.797,0.001-41.593,0.001-62.39,0.001
			C298.88,273.852,298.88,273.875,298.88,273.898z M337.45,236.693c0-6.908,0.001-13.816-0.001-20.723
			c-0.001-2.703-0.985-3.7-3.702-3.691c-4.352,0.014-8.703,0.069-13.055,0.079c-2.337,0.005-4.674-0.087-7.01-0.06
			c-1.926,0.022-2.902,0.974-3.037,2.871c-0.059,0.823-0.01,1.654-0.01,2.481c0,13.276,0,26.553,0,39.829
			c0,0.324-0.016,0.649,0.005,0.971c0.096,1.493,0.981,2.488,2.448,2.649c0.96,0.105,1.932,0.128,2.898,0.131
			c5.676,0.018,11.353-0.053,17.027,0.055c3.065,0.058,4.435-1.061,4.436-4.085C337.451,250.365,337.45,243.529,337.45,236.693z
			 M283.903,226.975c0-3.957-0.01-7.914,0.006-11.872c0.005-1.164-0.437-2.08-1.553-2.408c-0.943-0.277-1.963-0.396-2.949-0.401
			c-3.847-0.017-7.695,0.056-11.542,0.062c-2.444,0.004-4.889-0.089-7.333-0.068c-1.969,0.016-2.871,0.86-3.134,2.802
			c-0.057,0.421-0.013,0.856-0.013,1.285c0,7.051-0.003,14.102,0.008,21.153c0.001,0.711,0.026,1.433,0.151,2.13
			c0.231,1.282,0.967,1.925,2.274,2.011c0.85,0.055,1.706,0.011,2.559,0.011c6.188,0,12.375,0.002,18.563-0.001
			c2.063-0.001,2.959-0.891,2.962-2.94C283.907,234.817,283.904,230.896,283.903,226.975z"/>
	</g>
</g>
</svg>
